<svg id="Calque_1" data-name="Calque 1" xmlns="http://www.w3.org/2000/svg" viewBox="0 0 144 144"><defs><style>.cls-1,.cls-3{fill:#333;}.cls-2{fill:#ebeced;}.cls-3,.cls-4{stroke:#ebeced;stroke-miterlimit:10;}.cls-3{stroke-width:0.75px;}.cls-4{fill:#666;}</style></defs><circle class="cls-1" cx="72" cy="72" r="72"/><g id="LP"><path class="cls-2" d="M53.43,97.56a15.42,15.42,0,0,1,2.33,7.73,8.13,8.13,0,0,1-.14,1.53q-.13.69-.33,1.44A22,22,0,0,0,52,108H43.85a48.32,48.32,0,0,0-5.1.3c-1.86.2-4,.46-6.26.8s-5,.76-8,1.29a11.34,11.34,0,0,1-4.3-3,28.57,28.57,0,0,1-4-5.28q.93-2.06,2.34-5.09t3.27-7.39q1.86-4.35,4.15-10.19T30.81,66q1.68-5,2.9-8.88t2.19-7.43q1-3.6,1.92-7.53c.62-2.61,1.31-5.64,2.06-9.06a16.32,16.32,0,0,1,6.49,2.76,22.68,22.68,0,0,1,5.28,5.74,37.94,37.94,0,0,0-2,3.93c-.81,1.8-1.76,4-2.85,6.58s-2.29,5.52-3.6,8.78-2.68,6.78-4.11,10.51-2.71,7.13-4,10.37-2.48,6.17-3.51,8.78-1.85,4.86-2.47,6.73a15,15,0,0,0-.94,4.2c1,0,1.9,0,2.71-.09s1.66-.17,2.53-.33,1.82-.34,2.85-.56,2.26-.51,3.69-.89c1.25-.31,2.4-.57,3.46-.79s2.1-.41,3.13-.56,2.08-.28,3.17-.38Z"/><path class="cls-2" d="M128,52.44a20.08,20.08,0,0,1-2.57,9.81,27.36,27.36,0,0,1-6.92,8.18A34.15,34.15,0,0,1,108.33,76,37.05,37.05,0,0,1,96,78a9.36,9.36,0,0,1-3.7-.6,10.27,10.27,0,0,1-3-2.35Q84.54,85.28,81.6,93.81A138,138,0,0,0,77,110.38a12.52,12.52,0,0,1-5.8-2.94,23.69,23.69,0,0,1-4.11-5.28q.93-1.77,2.24-4.67c.87-1.93,1.93-4.32,3.18-7.15s2.69-6.23,4.35-10.18,3.59-8.58,5.84-13.88q1.48-3.63,2.61-6.35t2-5.09q.84-2.39,1.54-4.72c.46-1.56,1-3.27,1.45-5.14a55.91,55.91,0,0,0-8.09,3.27A31.75,31.75,0,0,0,76,52.18a7.69,7.69,0,0,1-1.73-1.68A18.65,18.65,0,0,1,72.68,48a23.14,23.14,0,0,1-1.31-2.76,8.6,8.6,0,0,1-.65-2.52,33.26,33.26,0,0,1,6.72-3.46A71.66,71.66,0,0,1,86,36.52a80.87,80.87,0,0,1,9.49-1.82,70.48,70.48,0,0,1,9.39-.66,31.67,31.67,0,0,1,9.62,1.36,21.68,21.68,0,0,1,7.29,3.78A16.51,16.51,0,0,1,126.41,45,17.24,17.24,0,0,1,128,52.44Zm-25.14-5.31"/><polygon class="cls-3" points="110.11 46.72 101.11 46.72 96.61 55.05 101.11 63.39 110.11 63.39 114.6 55.05 110.11 46.72"/><path class="cls-4" d="M104.24,40.92l-3,5.66-4.5,8.34-3.06-5.66A13.3,13.3,0,0,1,104.24,40.92Z"/><path class="cls-4" d="M116.29,46.58h-15.1l3-5.66a13.74,13.74,0,0,1,1.44-.08A12.91,12.91,0,0,1,116.29,46.58Z"/><path class="cls-4" d="M118.84,54.92a14.67,14.67,0,0,1-1.11,5.65l-3-5.65-4.5-8.34h6.11A14.69,14.69,0,0,1,118.84,54.92Z"/><path class="cls-4" d="M117.73,60.57a13.28,13.28,0,0,1-10.6,8.34l3.05-5.66,4.5-8.33Z"/><path class="cls-4" d="M110.18,63.25l-3.05,5.66h0a13.79,13.79,0,0,1-1.45.08,12.89,12.89,0,0,1-10.6-5.74Z"/><path class="cls-4" d="M101.19,63.25H95.08a14.69,14.69,0,0,1-2.55-8.33,14.87,14.87,0,0,1,1.1-5.66l3.06,5.66Z"/></g></svg>