<?xml version="1.0" encoding="utf-8"?>
<!-- Generator: Adobe Illustrator 25.4.1, SVG Export Plug-In . SVG Version: 6.00 Build 0)  -->
<svg version="1.1" id="Calque_1" xmlns="http://www.w3.org/2000/svg" xmlns:xlink="http://www.w3.org/1999/xlink" x="0px" y="0px"
	 viewBox="0 0 144 144" style="enable-background:new 0 0 144 144;" xml:space="preserve">
<style type="text/css">
	.st0{fill:#333333;}
	.st1{fill:#EBECED;}
	.st2{fill:#333333;stroke:#EBECED;stroke-width:0.8;stroke-miterlimit:10;}
	.st3{fill:#666666;stroke:#EBECED;stroke-width:0.8;stroke-miterlimit:10;}
</style>
<circle class="st0" cx="72" cy="72" r="72"/>
<g>
	<path class="st1" d="M53.43,97.56c1.56,2.68,2.34,5.26,2.34,7.73c0,0.56-0.05,1.07-0.14,1.53c-0.09,0.46-0.2,0.94-0.33,1.44
		c-1.06-0.16-2.16-0.23-3.32-0.23c-1.15,0-2.35,0-3.6,0c-1.5,0-3.01,0-4.53,0c-1.53,0-3.22,0.1-5.09,0.3
		c-1.87,0.2-3.96,0.46-6.26,0.8c-2.3,0.33-4.98,0.76-8.04,1.29c-1.43-0.5-2.87-1.48-4.3-2.94c-1.43-1.47-2.77-3.23-4.02-5.28
		c0.62-1.37,1.4-3.07,2.34-5.09c0.93-2.02,2.02-4.49,3.27-7.38c1.25-2.9,2.63-6.29,4.16-10.19c1.53-3.89,3.16-8.4,4.91-13.51
		c1.12-3.37,2.09-6.32,2.9-8.88c0.81-2.56,1.54-5.03,2.2-7.43s1.29-4.91,1.92-7.53c0.62-2.62,1.31-5.64,2.06-9.07
		c2.49,0.5,4.66,1.42,6.5,2.76c1.84,1.34,3.6,3.26,5.28,5.75c-0.5,0.81-1.15,2.12-1.96,3.92c-0.81,1.81-1.76,4-2.85,6.59
		c-1.09,2.58-2.29,5.51-3.6,8.78c-1.31,3.27-2.68,6.77-4.11,10.51c-1.37,3.67-2.71,7.13-4.02,10.37c-1.31,3.24-2.48,6.17-3.5,8.78
		c-1.03,2.62-1.85,4.86-2.48,6.73c-0.62,1.87-0.93,3.27-0.93,4.2c1,0,1.9-0.03,2.71-0.09c0.81-0.06,1.65-0.17,2.52-0.33
		c0.87-0.16,1.82-0.34,2.85-0.56s2.26-0.51,3.69-0.89c1.25-0.31,2.4-0.58,3.46-0.79c1.06-0.22,2.1-0.41,3.13-0.56
		c1.03-0.16,2.09-0.28,3.18-0.37C50.83,97.79,52.06,97.68,53.43,97.56z"/>
	<path class="st1" d="M128,52.44c0,3.43-0.86,6.7-2.57,9.81c-1.71,3.11-4.02,5.84-6.92,8.17c-2.9,2.34-6.29,4.19-10.19,5.56
		c-3.89,1.37-8.02,2.06-12.38,2.06c-1.56,0-2.79-0.2-3.69-0.6c-0.9-0.4-1.92-1.18-3.04-2.35c-3.11,6.78-5.65,13.02-7.62,18.72
		c-1.96,5.69-3.5,11.22-4.62,16.57c-2.37-0.56-4.3-1.54-5.79-2.94c-1.5-1.4-2.87-3.16-4.11-5.28c0.62-1.18,1.37-2.74,2.24-4.67
		c0.87-1.93,1.93-4.31,3.18-7.15c1.25-2.83,2.69-6.23,4.35-10.18c1.65-3.95,3.6-8.58,5.84-13.87c1-2.43,1.87-4.55,2.62-6.35
		c0.75-1.81,1.4-3.5,1.96-5.09c0.56-1.59,1.07-3.16,1.54-4.72c0.47-1.56,0.95-3.27,1.45-5.14c-2.93,0.93-5.62,2.03-8.08,3.27
		c-2.46,1.25-4.5,2.56-6.12,3.93c-0.56-0.37-1.14-0.93-1.73-1.68c-0.59-0.75-1.14-1.57-1.64-2.48c-0.5-0.9-0.93-1.82-1.31-2.76
		c-0.37-0.93-0.59-1.78-0.65-2.52c1.81-1.25,4.05-2.4,6.73-3.46c2.68-1.06,5.54-1.98,8.6-2.76c3.05-0.78,6.22-1.39,9.49-1.82
		c3.27-0.44,6.4-0.65,9.39-0.65c3.55,0,6.76,0.45,9.62,1.35c2.87,0.9,5.3,2.16,7.29,3.78c1.99,1.62,3.52,3.55,4.58,5.79
		C127.47,47.21,128,49.7,128,52.44z M102.86,47.13"/>
</g>
<g>
	<polygon class="st2" points="110.11,46.72 101.11,46.72 96.61,55.05 101.11,63.39 110.11,63.39 114.6,55.05 	"/>
	<path class="st3" d="M104.24,40.92l-3.05,5.65l-4.5,8.34l-3.05-5.66C95.48,44.75,99.48,41.48,104.24,40.92z"/>
	<path class="st3" d="M116.29,46.58h-15.1l3.05-5.65c0.48-0.06,0.96-0.09,1.45-0.09C110.03,40.84,113.89,43.1,116.29,46.58z"/>
	<path class="st3" d="M118.84,54.92c0,2.01-0.39,3.93-1.11,5.66l-3.05-5.66l-4.5-8.34h6.1C117.89,48.91,118.84,51.79,118.84,54.92z"
		/>
	<path class="st3" d="M117.73,60.57c-1.85,4.51-5.84,7.78-10.6,8.33l3.05-5.65l4.5-8.34L117.73,60.57z"/>
	<path class="st3" d="M110.18,63.25l-3.05,5.65h0c-0.48,0.06-0.96,0.09-1.45,0.09c-4.35,0-8.21-2.26-10.6-5.74H110.18z"/>
	<path class="st3" d="M101.19,63.25h-6.1c-1.61-2.33-2.56-5.22-2.56-8.34c0-2.01,0.4-3.93,1.11-5.66l3.05,5.66L101.19,63.25z"/>
</g>
</svg>
