<?xml version="1.0" encoding="utf-8"?>
<!-- Generator: Adobe Illustrator 26.0.1, SVG Export Plug-In . SVG Version: 6.00 Build 0)  -->
<svg version="1.1" id="Calque_1" xmlns="http://www.w3.org/2000/svg" xmlns:xlink="http://www.w3.org/1999/xlink" x="0px" y="0px"
	 viewBox="0 0 800 800" style="enable-background:new 0 0 800 800;" xml:space="preserve">
<style type="text/css">
	.st0{display:none;}
	.st1{display:inline;opacity:0.4;}
	.st2{display:inline;fill:none;stroke:#000000;stroke-width:3;stroke-miterlimit:10;}
	.st3{fill:none;stroke:#FAFFFF;stroke-width:5;stroke-linecap:round;stroke-linejoin:round;stroke-miterlimit:10;}
</style>
<g id="Calque_1_00000008828825892387303800000011796492133594013609_" class="st0">
	
		<image style="display:inline;overflow:visible;enable-background:new    ;" width="604" height="603" xlink:href="4EF8B355.jpeg"  transform="matrix(1.2397 0 0 1.2397 -361.4058 84.8111)">
	</image>
</g>
<g id="Calque_2_00000127762694781996107450000017596613746852805001_" class="st0">
	<g class="st1">
		<g>
			<path d="M-134.7,737.9c23.1-31.5,54.1-56.6,89.5-73.1c16.8-7.8,34.3-14.2,50.4-23.7c7.6-4.5,14.9-9.7,21.2-15.9
				c6.9-6.8,12.4-14.8,17-23.3c4.8-9,8.6-18.4,12.6-27.7C60.3,564,64.9,554,69.7,544c9.5-19.8,19.9-39.1,31.1-58
				c11-18.5,22.3-37.3,36.9-53.3c6.4-7,13.1-14.6,14.7-24.4c0.7-4,0.5-8.2-1-12.1c-0.6-1.7-1.5-3.8-2.9-5s-3.1-2-4.5-3.3
				c-10.2-9.3-13.4-25.9-26.8-31.8c-4.3-1.9-9.5-1.7-12.3-6c-2.4-3.8-3.8-8.3-6-12.3c-4.5-8.3-10.4-15.8-17.4-22.2
				c-3.3-3-6.9-5.8-10.6-8.3c-0.5-0.4-1.4-0.2-1.8,0.2c-4.3,4.8-10.1,8.1-16.5,9.4c-6.8,1.4-13.3,0.3-19.5-2.5
				c-5.9-2.6-12-6.1-18.7-5.3c-7.4,1-13.2,6.7-18.8,10.9c-6.7,5-13.3,10-20,15c-5.9,4.4-12,8.6-17.4,13.6
				c-4.8,4.4-8.9,9.6-10.8,15.9c-1.9,6.1-1.9,13.5-6.5,18.5c-4.2,4.5-10.5,5.6-16.3,6.5c-6.2,0.9-12.2,1.6-18,4
				c-13.2,5.6-22.8,16.8-34.9,24c-6.3,3.8-13.6,6.7-21.1,6.4c-6.3-0.3-12.3-4.4-18.6-3.4c-7.1,1.1-7.5,8.6-8.1,14.4
				c-0.8,8.1-1.3,16.3-1.4,24.4c-0.3,16.5,0.9,32.9,3.3,49.2c0.6,4.1,1.3,8.2,2.1,12.3c0.8,4,1.9,8.1,2.3,12.2
				c0.7,7.8-3,14.4-7.6,20.3c-4.4,5.7-9,11.1-13.3,16.8s-8.4,11.6-12.3,17.6c-7.9,12.1-14.9,24.9-20.6,38.2
				c-5.5,13-9.7,26.5-12,40.5c-1.1,6.3-2.4,13.2-1.9,19.6c0.3,4.4,1.9,10.3,7,11.4c6.2,1.4,9.6-5.3,13.9-8.3
				c5.4-3.8,12.1-4.7,18.4-6.1c11.9-2.8,21.8-9.3,31-17.1s17.7-16.6,27.9-23.2c5.4-3.5,11.2-5.7,17.3-7.7c3.1-1,6.1-2.1,8.9-3.8
				c2.8-1.8,4.9-4.3,7-6.8c2.3-2.7,4.7-5,8.2-5.9c3.3-0.9,6.8-0.7,10,0.2c7,1.9,12.3,6.8,17.4,11.7s10.2,9.7,16.3,13.4
				c5.9,3.6,12.5,6.2,19.2,7.8c6.5,1.5,13.3,2,20,1.4c1.9-0.2,1.9-3.2,0-3c-14.1,1.2-28.3-2.5-40.1-10.3
				c-11.2-7.4-19-20.7-32.7-24.1c-5.8-1.4-12.2-0.9-17,3c-2.5,2.1-4.3,4.8-6.6,7.1c-2.5,2.7-5.7,4.3-9.2,5.6
				c-5.9,2.1-11.8,3.8-17.3,6.9c-5,2.8-9.6,6.3-14,10c-9.2,7.7-17.6,16.4-27.6,23.2c-4.8,3.2-10,6-15.6,7.6
				c-6.2,1.8-12.7,2.5-18.6,5c-2.8,1.2-5.4,2.8-7.6,5c-2,1.9-4,4.8-6.8,5.5c-6.2,1.5-6.8-8.1-6.6-12c0.8-14.1,3.8-28,8.3-41.3
				c9.1-27.1,24.3-52,41.8-74.4c4.3-5.4,9-10.6,12.7-16.4c3.8-6,5.6-12.3,4.6-19.4c-1.1-8-3.2-16-4.4-24c-1.2-8.1-2-16.2-2.5-24.4
				c-1-16.3-0.7-32.6,1-48.9c0.3-3.2,0.3-7.8,3.6-9.6c2.8-1.5,6.5-0.3,9.4,0.5c3.1,0.9,6,1.9,9.2,2.2c3.4,0.3,6.9,0,10.2-0.8
				c13.9-3.4,24.2-13.7,35.3-21.9c5.6-4.1,11.6-7.8,18.3-9.6c5.8-1.5,11.7-1.7,17.5-3c5.4-1.2,10.6-3.5,13.9-8
				c3.8-5.3,4.1-12,5.9-18.1c2-6.6,6.7-11.7,11.8-16.1c5.9-5,12.3-9.5,18.4-14.1c6.6-4.9,13.1-9.8,19.7-14.7
				c5.8-4.4,11.8-9.5,19.6-7.8c6.7,1.5,12.4,5.7,19.1,7.3c5.9,1.4,12.1,1.1,17.8-0.8c5.5-1.8,10.6-5,14.5-9.3
				c-0.6,0.1-1.2,0.2-1.8,0.2c8,5.4,15.1,12.1,20.8,19.8c2.7,3.7,5.2,7.6,7.2,11.7c2,3.9,3.2,8.4,6,11.8c3,3.6,7.5,3.8,11.6,5.3
				c3.2,1.2,5.9,3.3,8.2,5.8c4.9,5.3,8,12,12.1,17.9c1.9,2.8,4,5.5,6.5,7.8c1.2,1.1,2.6,2,3.9,3c1.9,1.4,2.8,3.9,3.4,6
				c2.4,9.6-2.8,18.9-8.8,26c-3.2,3.9-6.8,7.5-10.1,11.3c-3.4,4-6.6,8.2-9.6,12.5c-6.1,8.7-11.7,17.7-17.2,26.7
				c-11.4,18.6-22,37.7-31.7,57.2c-4.7,9.5-9.3,19.1-13.6,28.8c-4.2,9.5-8.1,19.2-12.4,28.7c-4.2,9.2-9,18.2-15.4,26
				c-5.7,7-12.6,12.9-20,17.9c-15.1,10.1-32.2,16.8-48.8,24.1c-17.4,7.7-33.9,16.7-49.2,28c-15.2,11.3-29.1,24.4-41.2,39
				c-2.9,3.5-5.7,7.2-8.5,10.9C-138.4,737.9-135.9,739.4-134.7,737.9L-134.7,737.9z"/>
		</g>
	</g>
	<g class="st1">
		<g>
			<path d="M-168.9,546.3c0.2,3.8,2.5,6.7,5,9.3c1.2,1.3,2.6,2.6,3.7,4.1c1.3,1.7,2.2,3.6,2.8,5.6c1.3,4,1.6,8.3,2.8,12.3
				c1.1,3.7,2.9,7,5.3,10c4.9,6.1,11.9,9.7,19.6,10.8c7.1,0.9,15.5-0.2,21.8,3.8c6.2,3.9,7.4,13.9,15.6,14.8c1.9,0.2,1.9-2.8,0-3
				c-2.9-0.3-4.8-3-6.3-5.3c-1.8-2.8-3.5-5.7-6.1-7.8c-5.7-4.6-13.5-4.5-20.4-5c-3.6-0.2-7.3-0.7-10.7-2c-3.4-1.3-6.6-3.4-9.2-5.9
				c-2.6-2.5-4.7-5.6-6-8.9c-1.5-3.8-1.9-7.8-2.8-11.7c-1-4.4-2.8-8.1-5.9-11.5c-2.5-2.7-5.9-5.5-6.2-9.5
				C-166.1,544.4-169.1,544.4-168.9,546.3L-168.9,546.3z"/>
		</g>
	</g>
	<g class="st1">
		<g>
			<path d="M-86.3,615.2c3-8.8,11.3-14.2,18.5-19.4c8.6-6.1,16.7-12.8,24.3-20s14.7-15,21.2-23.2c7-8.8,13.3-18.2,19.5-27.5
				c1.6-2.5,3.2-5,4.3-7.7c1-2.5,1.5-5.1,1.8-7.8c0.5-4.8,0.2-10.5,3.5-14.4c1.2-1.5-0.9-3.6-2.1-2.1c-3,3.6-3.6,8-4,12.5
				c-0.2,2.2-0.3,4.5-0.8,6.8c-0.5,2.6-1.6,5.1-2.9,7.4c-2.8,4.8-6.1,9.4-9.3,13.9c-3.2,4.7-6.5,9.4-10,13.9
				c-12.9,17-28.4,32.1-45.7,44.6c-8.3,6-17.9,11.9-21.3,22.2C-89.9,616.2-87,617-86.3,615.2L-86.3,615.2z"/>
		</g>
	</g>
	<g class="st1">
		<g>
			<path d="M90.8,535.4c-9.8-3.3-19.7-6.4-29.4-10c-4.6-1.7-8.1-4.5-11.8-7.7c-3.5-2.9-7.2-5.5-11.1-7.7c-8.3-4.7-17.4-8.2-26.1-12
				c-9.4-4.1-18.8-8.2-28.2-12.2c-4.5-1.9-9-3.6-13.6-4.8c-4.2-1.1-8.5-1.9-12.7-2.7c-8.4-1.5-16.9-2.7-24.9-5.6
				c-3.9-1.4-7.7-3.4-11.1-5.8c-1.9-1.3-3.7-2.8-5.7-3.9c-1.9-1-4.1-1.7-6.2-2.1c-4.5-0.9-9-0.8-13.5-1.6c-4.1-0.8-8-2.1-11.7-4
				c-7.6-3.9-14.2-9.4-20.2-15.4c-5.6-5.6-11.1-12.5-18.9-15.1c-1.8-0.6-3.8-0.9-5.7-0.9s-1.9,3,0,3c8.3-0.1,14.4,6.8,19.8,12.3
				c5.9,6.1,12.2,11.8,19.4,16.3c3.6,2.2,7.4,4,11.4,5.4c4.1,1.3,8.4,1.8,12.7,2.2c4.5,0.4,9,0.9,12.9,3.4c1.9,1.2,3.7,2.7,5.6,3.9
				c1.7,1.2,3.6,2.2,5.4,3.1c15.7,7.5,33.7,6.8,49.9,12.7c9.6,3.5,19,7.9,28.3,12c8.9,3.9,18,7.5,26.7,11.8c4.1,2,8,4.2,11.7,6.9
				s6.9,6,10.8,8.5c4.1,2.6,8.9,3.9,13.4,5.5c4.9,1.7,9.8,3.3,14.7,5c2.4,0.8,4.9,1.7,7.3,2.5C91.9,538.9,92.7,536,90.8,535.4
				L90.8,535.4z"/>
		</g>
	</g>
	<g class="st1">
		<g>
			<path d="M-132.8,447.4c-8.2,0.8-16.4,1.5-24.6,2.4c-3.9,0.4-7.6,1.1-11.3,2.3c-3.8,1.2-7.5,2.5-11.3,3.3
				c-1.9,0.4-1.1,3.3,0.8,2.9c3.8-0.7,7.4-2.1,11.1-3.2c3.7-1.1,7.3-1.9,11.1-2.3c8.1-0.8,16.1-1.5,24.2-2.3
				C-130.9,450.2-130.9,447.2-132.8,447.4L-132.8,447.4z"/>
		</g>
	</g>
	<g class="st1">
		<g>
			<path d="M-129.4,451.2c3.1,0.8,5.9-0.6,8.7-1.8c2.9-1.3,5.8-2.8,8.7-4.4c5.5-3.1,10.9-6.5,16.2-9.9c5.4-3.5,10.9-6.9,16.2-10.5
				c2.3-1.6,4.6-3.3,6.7-5.2c1.1-0.9,2.1-1.9,3-2.9c1-1,2.1-2.2,2.7-3.5c0.7-1.7-0.1-3.2-0.8-4.8c-0.7-1.4-1.2-2.9-1.7-4.5
				c-0.9-3.4-1.1-6.9-0.5-10.3c0.3-1.9-2.6-2.7-2.9-0.8c-0.9,5.6-0.2,11.2,2.1,16.4c0.3,0.7,0.8,1.3,1,2c0.2,0.8-0.1,1.2-0.6,1.8
				c-0.9,1.1-1.9,2.1-2.9,3.1c-2,1.9-4.2,3.6-6.4,5.3c-4.8,3.4-9.8,6.5-14.8,9.7c-5.1,3.3-10.3,6.7-15.6,9.7
				c-2.9,1.7-5.8,3.2-8.7,4.7c-1.5,0.8-3.1,1.5-4.6,2.1s-3.2,1.3-4.8,0.9C-130.5,447.9-131.3,450.8-129.4,451.2L-129.4,451.2z"/>
		</g>
	</g>
	<g class="st1">
		<g>
			<path d="M-40.5,478.1c2.8-5.5-1-10.8-3.5-15.6c-1.4-2.6-2.6-5.5-2.1-8.4c0.6-3.6,3-6.6,5.2-9.4c9.5-12.3,19-24.6,29.9-35.8
				c6.1-6.2,12.5-12.1,19.5-17.3c1.1-0.8,0.9-2.2-0.4-2.7c-9.2-3.6-17.1-10.5-22.1-19c-2.5-4.2-4.3-8.8-5.3-13.6
				c-1-4.5-1.5-9.2-2.9-13.6c-1.4-4.7-3.9-9-8.3-11.5c-1.7-0.9-3.2,1.7-1.5,2.6c3.9,2.2,5.9,6.1,7.1,10.3c1.3,4.4,1.8,9,2.8,13.5
				c2.2,9.8,7.6,18.7,15,25.4c4.3,3.8,9.1,6.8,14.4,8.9c-0.1-0.9-0.2-1.8-0.4-2.7c-12.6,9.3-23.4,20.7-33.4,32.7
				c-5.1,6.1-9.9,12.3-14.8,18.6c-4.3,5.5-9.7,11.6-7.4,19.1c1,3.2,2.8,6.1,4.4,9c1.3,2.5,2.6,5.5,1.2,8.3
				C-44,478.3-41.4,479.8-40.5,478.1L-40.5,478.1z"/>
		</g>
	</g>
	<g class="st1">
		<g>
			<path d="M2.7,391.2c10.2-0.8,20.5-0.4,30.7,1.4c10,1.7,19.8,4.7,29.5,7.8c3.5,1.1,7.3,2.3,9.9,4.9c3.3,3.2,2.4,7.7,4,11.6
				c1.3,3.2,3.9,5.6,6.4,7.9c2.4,2.2,5.3,4.8,5.5,8.4c0.2,2.5-0.7,4.9-1.5,7.1c-0.9,2.5-1.8,5-2.6,7.5c-1.7,5-3.4,9.9-5.2,14.9
				c-3.3,9.4-6.5,18.9-9.9,28.2c-3.3,9-6.8,17.9-11,26.6c-2.1,4.3-4.3,8.6-6.7,12.7c-2.2,3.9-4.6,7.8-7.4,11.3
				c-2.5,3.1-5.5,6.1-9.2,7.6c-4.1,1.8-8.1,0.8-11.9-1.3c-4.1-2.2-8.1-4.4-12.6-5.9c-4.4-1.5-9-2.5-13.7-3c-2.4-0.2-4.8-0.3-7.1-0.3
				c-1.9,0-1.9,3,0,3c9.9-0.2,19.7,2.1,28.5,6.8c4,2.2,8,4.8,12.8,4.6c4.1-0.2,7.7-2.2,10.7-4.7c3.3-2.8,6-6.3,8.3-9.9
				c2.7-4.2,5.2-8.4,7.5-12.8c4.6-8.7,8.4-17.8,12-26.9c3.6-9.5,6.9-19,10.2-28.6c1.8-5.2,3.6-10.4,5.4-15.6
				c1.8-5.1,3.8-10.2,5.3-15.5c1.3-4.2,1.3-8.4-1.4-12.1c-2.1-2.9-5.1-5-7.5-7.6c-1.2-1.4-2.2-2.9-2.7-4.6c-0.6-2.2-0.6-4.5-1.3-6.6
				c-1.2-3.9-4.3-6.5-7.8-8.2c-4.1-1.9-8.6-3.1-12.9-4.4c-5-1.5-10.1-3-15.3-4.2c-10.3-2.4-20.9-3.6-31.5-3.4
				c-2.6,0-5.2,0.2-7.7,0.4C0.7,388.3,0.7,391.3,2.7,391.2L2.7,391.2z"/>
		</g>
	</g>
	<g class="st1">
		<g>
			<path d="M-16.6,542.3c-13.7-6-27.8-10.9-42.2-14.9c-14.6-4-29.4-7.3-44.2-10.7c-8.3-1.9-16.6-3.8-24.8-5.7
				c0.3,0.7,0.6,1.5,0.9,2.2c2.5-3.4,5.2-7.1,5.1-11.5c-0.1-3.7-2.2-7.4-6.1-8.2c-2.4-0.5-5-0.4-7.5-0.5c-2.6-0.1-5.1-0.2-7.7-0.2
				c-5.3-0.2-10.6-0.3-15.9-0.5c-6-0.2-11.9-0.4-17.9-0.5c-1.9-0.1-1.9,2.9,0,3c9.4,0.3,18.9,0.6,28.3,0.9c4.8,0.1,9.6,0.3,14.4,0.4
				c2,0.1,4.6-0.2,6.4,0.6c1.4,0.6,2.3,2.1,2.6,3.6c1.1,4.3-2,8.3-4.4,11.5c-0.6,0.8,0,2,0.9,2.2c14.6,3.3,29.3,6.7,43.9,10.1
				c14.6,3.4,29,7.1,43.2,11.9c7.9,2.7,15.7,5.7,23.4,9C-16.4,545.7-14.9,543.1-16.6,542.3L-16.6,542.3z"/>
		</g>
	</g>
	<g class="st1">
		<g>
			<path d="M-124.4,496.7c22.7-2.5,45.3-4.7,68-7c6.4-0.6,12.8-1.5,19.2-0.9c1.9,0.2,1.9-2.8,0-3c-5.7-0.5-11.4,0.1-17,0.7
				c-5.7,0.6-11.4,1.2-17.1,1.7c-11.3,1.1-22.7,2.3-34,3.5c-6.4,0.7-12.8,1.4-19.2,2C-126.3,493.9-126.3,496.9-124.4,496.7
				L-124.4,496.7z"/>
		</g>
	</g>
	<g class="st1">
		<g>
			<path d="M2.5,508.9c-8.6,0-17.7-0.1-25-5.3c-3.4-2.5-6.7-5.6-9.4-8.8c-2.6-3-4.7-6.6-4.5-10.7c0.1-1.9-2.9-1.9-3,0
				c-0.3,7.2,5,12.8,9.9,17.4c2.7,2.6,5.6,5.1,9,6.8c3.3,1.7,6.8,2.6,10.4,3.1c4.2,0.6,8.4,0.6,12.6,0.6
				C4.4,511.9,4.5,508.9,2.5,508.9L2.5,508.9z"/>
		</g>
	</g>
	<g class="st1">
		<g>
			<path d="M-147.1,579.3c8.4-2.1,16.4-5.5,23.7-10c3.7-2.3,7.2-4.9,10.5-7.8c3.3-2.9,6.2-6.1,9.1-9.3c1.5-1.7,3.2-3,5.5-3.4
				c2.1-0.4,4.3-0.2,6.4,0.2c4.5,0.8,8.8,2,13.3,2.2c9.3,0.5,18.5-1.5,27.5-3.2c5.2-1,10.3-2,15.6-2.4c2.6-0.2,5.2-0.3,7.8-0.2
				c1.3,0,2.6,0.2,3.9,0.3c0.5,0.1,1,0.1,1.4,0.4c0.1,0.1,0.3,0.3,0.4,0.3l0.1,0.1c0.2,0.3,0.4,0.1,0.6-0.8c-0.8,0.3-1.3,1-1,1.8
				c0.2,0.7,1.1,1.4,1.9,1c1.9-0.8,2.1-2.6,0.8-4.1c-1.5-1.7-3.7-1.8-5.9-2c-5-0.4-9.9,0-14.8,0.6c-9.9,1.3-19.6,4.1-29.6,4.9
				c-4.9,0.4-9.9,0.4-14.8-0.6c-4.5-0.9-9.1-2.4-13.7-1.7c-5,0.8-7.6,4.8-10.8,8.2c-3.2,3.4-6.7,6.5-10.4,9.3
				c-8.4,6.2-18,10.8-28.2,13.3C-149.8,576.9-149,579.8-147.1,579.3L-147.1,579.3z"/>
		</g>
	</g>
	<g class="st1">
		<g>
			<path d="M-23.4,550.8c1.1,4.4,3,8.5,4.9,12.6c2,4.4,3.4,8.8,4.1,13.6c1.5,9.4,3.2,19.3,1,28.8c-1.1,4.7-3.2,9.1-6.5,12.6
				c-1.3,1.4,0.8,3.5,2.1,2.1c6.4-6.7,8.5-16.1,8.4-25.1c-0.1-5.2-0.8-10.4-1.6-15.6c-0.8-5.1-1.7-9.9-3.6-14.7
				c-2.1-5-4.6-9.8-5.9-15.1C-20.9,548.2-23.8,549-23.4,550.8L-23.4,550.8z"/>
		</g>
	</g>
	<g class="st1">
		<g>
			<path d="M-23.1,622.7c-2.5,4-5.2,7.9-7.9,11.8c-1.4,2-2.8,4.1-4.2,6.1c-0.7,1-1.4,2-2.1,3c-0.3,0.5-0.7,1.1-1,1.5
				c-0.1,0.1-0.2,0.2-0.3,0.3c-0.5,0.2-0.1,0.4,1.1,0.7c-0.4-1.9-3.3-1.1-2.9,0.8c0.2,1.1,1.3,1.6,2.3,1.4c1.1-0.2,1.7-0.9,2.3-1.8
				c1.8-2.5,3.5-5.1,5.3-7.6c3.4-4.9,6.9-9.8,10-14.8C-19.5,622.5-22.1,621-23.1,622.7L-23.1,622.7z"/>
		</g>
	</g>
	<g class="st1">
		<g>
			<path d="M60.8,518.8c-3.2-3.2-4.1-7.8-4.7-12.2c-0.6-4.6-1-9.3-2.9-13.6c-1-2.3-2.6-4.2-3.8-6.4c-1.4-2.4-1.8-4.6-0.2-7
				c1.2-1.9,2.5-3.7,3.4-5.8c0.8-1.9,1.3-3.8,1.6-5.8c1.2-8.2-1.3-16.8-6.9-23c-2.8-3.1-6.3-5.4-10.2-6.7c-5-1.7-10.7-2.2-14.4-6.3
				c-2-2.2-3.2-5-4.4-7.6c-1.5-3.3-3-6.6-4.5-10c-3.1-6.8-6.1-13.6-9.1-20.4c-0.8-1.8-3.4-0.2-2.6,1.5c2.7,6,5.4,12.1,8.1,18.1
				c1.4,3,2.7,6,4.1,9.1c1.2,2.6,2.3,5.4,3.7,7.9c1.3,2.3,3,4.4,5.2,5.9c2.1,1.5,4.6,2.3,7,3c4.5,1.3,8.8,2.3,12.5,5.4
				c6.2,5.2,9.4,13.7,8.6,21.8c-0.2,2-0.7,4-1.5,5.8c-0.8,2.1-2.2,3.8-3.4,5.7c-1.4,2.2-1.9,4.6-1.1,7.1c0.8,2.5,2.4,4.6,3.8,6.8
				c5.5,8.8,1.6,21.2,9.4,28.9C60.1,522.2,62.2,520.1,60.8,518.8L60.8,518.8z"/>
		</g>
	</g>
	<g class="st1">
		<g>
			<path d="M73.5,405.5c1.9,0,1.9-3,0-3S71.6,405.5,73.5,405.5L73.5,405.5z"/>
		</g>
	</g>
	<g class="st1">
		<g>
			<path d="M74.2,400.2c-0.6-3.9,2.6-7.4,4.7-10.3c1.2-1.6,2.3-3.4,3.1-5.2c0.9-2.3,1.2-4.9,2.8-6.8c1.4-1.8,3.2-3.3,4.4-5.3
				c1.2-1.9,2-3.9,2.8-5.9c1.6-4,2.9-8.2,5.8-11.6s6.9-6.7,6.7-11.6c-0.1-1.9-3.1-1.9-3,0c0.1,4.2-3.9,7.1-6.3,10.1
				c-2.8,3.5-4.3,7.7-5.9,11.8c-0.8,2.1-1.7,4.1-2.9,6c-1.3,2-3.1,3.4-4.5,5.3c-1.5,2.1-1.8,4.5-2.7,6.8c-0.8,1.9-2,3.7-3.2,5.3
				c-2.7,3.7-5.4,7.4-4.7,12.2C71.6,403,74.5,402.1,74.2,400.2L74.2,400.2z"/>
		</g>
	</g>
	<g class="st1">
		<g>
			<path d="M68.5,397.7c-1.1,3.5-4.4,5.8-7,8.2c-2.9,2.7-4.9,5.8-6.7,9.3c-1.8,3.6-3.7,7-7.1,9.3c-1.7,1.2-3.5,2.2-5,3.6
				c-1.5,1.3-2.6,2.8-3.4,4.6c-1.8,3.7-2.3,8.2-5.2,11.3c-1.3,1.4,0.8,3.5,2.1,2.1c2.7-2.9,3.6-6.7,5-10.3c0.7-1.8,1.5-3.5,2.9-4.9
				c1.5-1.5,3.3-2.5,5-3.7c3.5-2.4,5.7-5.5,7.6-9.1c1.9-3.6,3.6-7,6.7-9.8c3.1-2.9,6.6-5.5,8-9.7C72,396.6,69.1,395.8,68.5,397.7
				L68.5,397.7z"/>
		</g>
	</g>
</g>
<g id="Calque_3" class="st0">
	<path class="st2" d="M-17.4,650.8c9.6-1.9,54.8-45.3,70.8-83.3s56-99,60-101s12-24,12-30s29.8-28,31.9-32.5s-42.9-52.5-50.9-58.5
		S75.6,308.8,70,308.6c-5.6-0.1-37.7,2-53.6,2c-15.9-0.1-60.5,37-64.2,47s-1.7,18.6-10.2,26.3c-8.5,7.7-27.1,8-33.8,10.8
		s-23.5,25.7-32.6,29.3s-42.3-5.1-46.7-0.8s-9.6,80-8.5,88.2c1.1,8.2,9.4,19.6,6.7,32.4c-2.6,12.8-76.6,97.3-60.6,150
		c15,5.7,126.2-67.4,141.1-78.3C-76.5,619.5-34.2,654-17.4,650.8z"/>
	<path class="st2" d="M-36.7,644.8c7.2-6.3,26.1-23.6,26.6-33.9s-8.1-57.8-12.4-60.4s-70.1-0.1-83,1.4c-13,1.6-18.4,26.8-46.7,28.2
		c-10.3-9.6-12-30.4-18.6-36.5c-1.6-1.1-1.6-1.1-1.6-1.1"/>
	<path class="st2" d="M-152.2,580.1c1.7,13.4,36.7,15.4,48.7,22.4s11.1,12.9,11.1,12.9c48.9-28.9,66.9-55.3,72.9-69.1
		c0,0-10-9.8-17.6-12.2s-27.4-2.6-36.4-3.6s-51-15-54.1-19s2.1-11-1.4-14.3s-39.5-4.7-50.2-5"/>
	<path class="st2" d="M-129,497.2c20.5,0.3,81.5-6.2,88-8.4"/>
	<path class="st2" d="M-19.5,546.3c10-13.8,15.1-40.5,23-51.2"/>
</g>
<g id="Calque_4">
	<polyline class="st3" points="83.6,563 64.7,489.5 76.5,252.6 180.8,153 263.7,200.4 351.4,195.7 382.2,93.8 436.7,77.2 512.6,-1 
		605,29.8 647.6,1.4 735.3,84.3 669,226.5 721.1,333.1 597.9,582 519.7,551.2 458.1,539.3 394.1,646 291,718.2 	"/>
	<polyline class="st3" points="123.9,650.7 237.7,584.3 440.5,568.6 469.9,721.8 398.8,800 287.7,719.1 123.9,650.7 83.6,563 	"/>
	<polyline class="st3" points="446.7,558.2 401.2,534.6 318.2,527.5 190.3,480.1 185.5,345 71.6,350.6 	"/>
	<polyline class="st3" points="405.9,416.1 189.2,448.7 67.3,437.7 	"/>
	<polyline class="st3" points="398,413.5 384.6,340.3 500.7,200.4 548.1,292.9 622.7,359.4 612.1,439.8 637.3,502.5 405.9,416.1 
		185.5,345 384.6,228.9 472.5,146.2 	"/>
	<polyline class="st3" points="550.5,11.6 472.5,146.2 500.7,200.4 436.7,77.2 	"/>
	<polyline class="st3" points="561.4,15.3 569.4,193.3 498.8,196.7 569.4,193.3 669,226.5 575.7,317.5 	"/>
	<polyline class="st3" points="322.6,200.4 344.8,252.1 384.6,340.3 	"/>
	<polyline class="st3" points="180.8,153 202.1,273.9 76.5,252.6 185.5,345 	"/>
	<line class="st3" x1="202.1" y1="273.9" x2="263.7" y2="200.4"/>
	<line class="st3" x1="458.1" y1="539.3" x2="416.4" y2="420"/>
</g>
</svg>
