<?xml version="1.0" encoding="utf-8"?>
<!-- Generator: Adobe Illustrator 26.0.1, SVG Export Plug-In . SVG Version: 6.00 Build 0)  -->
<svg version="1.1" id="Calque_1" xmlns="http://www.w3.org/2000/svg" xmlns:xlink="http://www.w3.org/1999/xlink" x="0px" y="0px"
	 viewBox="0 0 800 800" style="enable-background:new 0 0 800 800;" xml:space="preserve">
<style type="text/css">
	.st0{display:none;opacity:0.5;}
	.st1{fill:none;stroke:#FAFFFF;stroke-width:5;stroke-linecap:round;stroke-linejoin:round;stroke-miterlimit:10;}
</style>
<g id="Calque_2_00000097479366071186411650000006347673886388194694_" class="st0">
	
		<image style="display:inline;overflow:visible;enable-background:new    ;" width="2001" height="1962" xlink:href="4A31F60B.jpeg"  transform="matrix(0.314 0 0 0.314 86 92.3111)">
	</image>
</g>
<g id="Calque_3">
	<polygon class="st1" points="216.4,648.8 426.8,737.8 477.7,639 418.4,634.7 329.4,525.9 308.2,583.9 275.7,583.9 	"/>
	<polyline class="st1" points="342.8,384.7 287,359.2 152.8,370.5 168.3,559.8 216.4,648.8 	"/>
	<polyline class="st1" points="177.6,577 220.6,545.7 267.2,528.8 329.4,525.9 343.5,377.6 592.1,331 593.5,342.3 	"/>
	<polyline class="st1" points="223.4,364.6 226.2,405.9 213.5,521.7 220.6,545.7 	"/>
	<polyline class="st1" points="260.7,361.5 263,394.6 329.4,525.9 	"/>
	<polyline class="st1" points="331.3,505.4 353.5,505.4 439.6,446.8 	"/>
	<polyline class="st1" points="353.5,505.4 421.2,513.2 554.3,504 	"/>
	<polyline class="st1" points="477.7,449.3 511.6,452.5 508.8,434.1 485,429.8 	"/>
	<line class="st1" x1="508.8" y1="434.1" x2="585.4" y2="449.3"/>
	<polyline class="st1" points="511.6,454 515.8,472.2 565.3,484.7 	"/>
	<polyline class="st1" points="388,597.6 446.6,569.7 530.6,545.7 	"/>
	<polyline class="st1" points="152.8,370.5 155.6,316.9 237.5,299.9 243.5,362.9 	"/>
	<line class="st1" x1="295" y1="303.5" x2="289.7" y2="360.4"/>
	<polyline class="st1" points="350.6,307 398.6,288.6 418.4,268.8 479.1,250.5 585.4,319.7 592.1,331 	"/>
	<line class="st1" x1="563.6" y1="305.5" x2="531.9" y2="342.3"/>
	<polyline class="st1" points="155.6,316.9 140.1,294.3 120.3,242 237.5,299.9 350.6,307 343.5,377.6 	"/>
	<line class="st1" x1="148.6" y1="255.9" x2="153.4" y2="313.6"/>
	<polyline class="st1" points="120.3,242 76.5,66.8 128.8,45.6 182.4,189.7 185.5,274.2 	"/>
	<polyline class="st1" points="111.3,206 182.4,189.7 227.7,167.1 237.5,299.9 	"/>
	<line class="st1" x1="162.8" y1="137" x2="156.1" y2="195.7"/>
	<polyline class="st1" points="292.3,156.1 370.3,178.4 350.6,307 	"/>
	<polyline class="st1" points="441.6,225.6 439.6,243.4 418.4,268.8 370.3,178.4 479.1,250.5 	"/>
	<polyline class="st1" points="147,94.7 360.4,71.1 370.3,178.4 	"/>
	<polyline class="st1" points="220.9,86.5 227.7,167.1 292.3,156.1 277.5,302.4 	"/>
	<polyline class="st1" points="134,59.7 357.6,32.9 360.4,71.1 	"/>
	<polyline class="st1" points="128.8,45.6 183.9,8.9 213.5,-1 357.6,32.9 	"/>
	<polyline class="st1" points="426.8,737.8 456.5,750.6 582.2,753.4 703.7,800 665.6,739.2 614.7,691.2 566.7,674.3 524.3,671.4 
		453.2,686.6 	"/>
	<line class="st1" x1="563.4" y1="674.1" x2="556.8" y2="750.6"/>
	<polyline class="st1" points="674.1,749.1 723.5,689.8 667,660.1 630.3,653.1 548.4,653.1 477.7,639 602,420 593.5,342.3 
		491.8,411.5 477.7,449.3 409.9,442.6 412.7,400.2 489,410.1 	"/>
	<line class="st1" x1="548.4" y1="653.1" x2="571.7" y2="676"/>
	<polyline class="st1" points="703.7,679.4 620.4,505.4 530.6,545.7 	"/>
	<line class="st1" x1="595.8" y1="516.4" x2="672.7" y2="663.1"/>
	<polyline class="st1" points="620.4,505.4 634.2,498.3 582.7,454 	"/>
</g>
</svg>
